<?xml version="1.0" encoding="UTF-8"?>
<svg width="700pt" height="700pt" version="1.1" viewBox="0 0 700 700" xmlns="http://www.w3.org/2000/svg">
 <g>
  <path d="m425.38 183.08h-43.078v-21.539h43.078z"/>
  <path d="m425.38 398.46h-43.078v-21.539h43.078z"/>
  <path d="m382.31 161.54h-64.617v-21.539h64.617z"/>
  <path d="m382.31 420h-64.617v-21.539h64.617z"/>
  <path d="m317.69 183.08h-43.078v-21.539h43.078z"/>
  <path d="m317.69 398.46h-43.078v-21.539h43.078z"/>
  <path d="m274.62 204.62h-21.539v-21.539h21.539z"/>
  <path d="m446.92 204.62h-21.539v-21.539h21.539z"/>
  <path d="m468.46 355.38h-21.539v-43.078h21.539z"/>
  <path d="m468.46 247.69h-21.539v-43.078h21.539z"/>
  <path d="m253.08 355.38h-21.539v-43.078h21.539z"/>
  <path d="m231.54 312.31h-21.539v-64.617h21.539z"/>
  <path d="m490 312.31h-21.539v-64.617h21.539z"/>
  <path d="m253.08 247.69h-21.539v-43.078h21.539z"/>
  <path d="m446.92 376.92h-21.539v-21.539h21.539z"/>
  <path d="m274.62 376.92h-21.539v-21.539h21.539z"/>
  <path d="m306.92 290.77h-21.539v-21.539h21.539z"/>
  <path d="m328.46 312.31h-21.539v-21.539h21.539z"/>
  <path d="m350 333.85h-21.539v-21.539h21.539z"/>
  <path d="m371.54 355.38h-21.539v-21.539h21.539z"/>
  <path d="m328.46 269.23h-21.539v-21.539h21.539z"/>
  <path d="m350 247.69h-21.539v-21.539h21.539z"/>
  <path d="m371.54 226.15h-21.539v-21.539h21.539z"/>
 </g>
</svg>
